<svg width="24" height="24" viewBox="0 0 18 16" fill="none" xmlns="http://www.w3.org/2000/svg">
<path d="M9.0004 9.27746C8.66155 9.27746 8.33659 9.14286 8.09699 8.90326C7.85739 8.66366 7.72279 8.3387 7.72279 7.99985C7.72279 7.66101 7.85739 7.33604 8.09699 7.09645C8.33659 6.85685 8.66155 6.72224 9.0004 6.72224C9.33924 6.72224 9.66421 6.85685 9.9038 7.09645C10.1434 7.33604 10.278 7.66101 10.278 7.99985C10.278 8.3387 10.1434 8.66366 9.9038 8.90326C9.66421 9.14286 9.33924 9.27746 9.0004 9.27746ZM8.55068 11.8276C8.69973 12.0064 8.84964 12.1802 9.0004 12.3463C9.15116 12.1802 9.30106 12.0073 9.45012 11.8276C9.15034 11.8339 8.85046 11.8339 8.55068 11.8276ZM6.85146 11.7211C6.19737 11.653 5.54761 11.5484 4.90523 11.4077C4.84135 11.7058 4.7928 11.9954 4.76044 12.273C4.59861 13.6213 4.82432 14.4407 5.16757 14.6383C5.51082 14.8368 6.33275 14.6221 7.42042 13.8087C7.64443 13.6409 7.87014 13.4544 8.0967 13.2508C7.65337 12.7646 7.23764 12.2539 6.85146 11.7211ZM13.0956 11.4077C12.4849 11.5439 11.8324 11.6496 11.1493 11.7211C10.7632 12.2539 10.3474 12.7646 9.90409 13.2508C10.1307 13.4552 10.3564 13.6409 10.5804 13.8087C11.668 14.6221 12.49 14.8368 12.8332 14.6383C13.1765 14.4407 13.4013 13.6213 13.2412 12.273C13.2061 11.9825 13.1577 11.6938 13.0964 11.4077H13.0956ZM14.3306 11.078C14.822 13.3258 14.564 15.1153 13.472 15.7456C12.3801 16.3759 10.7013 15.7047 9.0004 14.1554C7.29947 15.7047 5.62069 16.375 4.52876 15.7447C3.43683 15.1144 3.17876 13.3258 3.66936 11.0772C1.47698 10.3796 0.0571289 9.26043 0.0571289 7.99985C0.0571289 6.73928 1.47698 5.62094 3.66936 4.92166C3.17876 2.67392 3.43683 0.884416 4.52876 0.254128C5.62069 -0.37616 7.29947 0.295011 9.0004 1.84433C10.7013 0.295011 12.3801 -0.375308 13.472 0.25498C14.564 0.885267 14.822 2.67392 14.3314 4.92251C16.5238 5.62009 17.9437 6.73928 17.9437 7.99985C17.9437 9.26043 16.5238 10.3788 14.3314 11.078H14.3306ZM8.09585 2.74887C7.87924 2.55281 7.65387 2.36666 7.42042 2.19098C6.33275 1.37757 5.51082 1.16293 5.16757 1.36139C4.82432 1.55899 4.59946 2.37837 4.75958 3.72667C4.79365 4.00519 4.84135 4.29393 4.90438 4.59204C5.54704 4.45128 6.19709 4.34663 6.85146 4.2786C7.25603 3.72241 7.67339 3.21052 8.0967 2.74887H8.09585ZM11.1493 4.2786C11.8324 4.35015 12.4849 4.45661 13.0956 4.59204C13.1594 4.29393 13.208 4.00434 13.2404 3.72667C13.4022 2.37837 13.1765 1.55899 12.8332 1.36139C12.49 1.16293 11.668 1.37757 10.5804 2.19098C10.3466 2.36663 10.121 2.55279 9.90409 2.74887C10.3274 3.21052 10.7448 3.72241 11.1493 4.2786ZM9.45012 4.17213C9.30106 3.99327 9.15116 3.81951 9.0004 3.65342C8.84964 3.81951 8.69973 3.99241 8.55068 4.17213C8.85046 4.16577 9.15034 4.16577 9.45012 4.17213ZM5.91028 10.303C5.75489 10.0467 5.60495 9.78711 5.46057 9.52447C5.37965 9.74336 5.3047 9.95885 5.23656 10.1726C5.45546 10.2203 5.68032 10.2638 5.90943 10.303H5.91028ZM7.55585 10.5023C8.51756 10.5737 9.48324 10.5737 10.4449 10.5023C10.9877 9.70499 11.4705 8.86856 11.8895 7.99985C11.4705 7.13114 10.9877 6.29471 10.4449 5.49744C9.48324 5.42601 8.51756 5.42601 7.55585 5.49744C7.01311 6.29471 6.53027 7.13114 6.1113 7.99985C6.53027 8.86856 7.01311 9.70499 7.55585 10.5023ZM12.5402 6.47524C12.6211 6.25634 12.6961 6.04085 12.7642 5.82706C12.5409 5.77861 12.3166 5.73516 12.0914 5.69675C12.2465 5.95304 12.3961 6.2126 12.5402 6.47524ZM4.00068 6.15754C3.71109 6.25123 3.43683 6.35344 3.17961 6.46416C1.93181 6.99906 1.33474 7.60379 1.33474 7.99985C1.33474 8.39591 1.93096 9.00065 3.17961 9.53554C3.43683 9.64627 3.71109 9.74847 4.00068 9.84217C4.18977 9.24595 4.424 8.62758 4.70337 7.99985C4.43492 7.39935 4.20033 6.78428 4.00068 6.15754ZM5.23571 5.82706C5.3047 6.04 5.37965 6.25634 5.46057 6.47438C5.60496 6.21202 5.7549 5.95275 5.91028 5.69675C5.68032 5.73593 5.45546 5.77937 5.23656 5.82706H5.23571ZM14.0001 9.84217C14.2897 9.74847 14.564 9.64627 14.8212 9.53554C16.069 9.00065 16.6661 8.39591 16.6661 7.99985C16.6661 7.60379 16.0698 6.99906 14.8212 6.46416C14.5523 6.34961 14.2783 6.24729 14.0001 6.15754C13.811 6.75376 13.5768 7.37212 13.2974 7.99985C13.5768 8.62758 13.811 9.2451 14.0001 9.84217ZM12.7651 10.1726C12.6961 9.95971 12.6211 9.74336 12.5402 9.52532C12.3958 9.78768 12.2459 10.047 12.0905 10.303C12.3205 10.2638 12.5453 10.2203 12.7642 10.1726H12.7651Z" fill="#011221"/>
</svg>
